<?xml version="1.0" encoding="UTF-8"?>
<svg width="372px" height="743px" viewBox="0 0 372 743" version="1.1" xmlns="http://www.w3.org/2000/svg" xmlns:xlink="http://www.w3.org/1999/xlink">
    <title>Group 5</title>
    <defs>
        <linearGradient x1="81.8195413%" y1="69.5757886%" x2="6.93799516%" y2="52.7234715%" id="linearGradient-1">
            <stop stop-color="#D8D6D6" offset="0%"></stop>
            <stop stop-color="#A5A1A1" offset="100%"></stop>
        </linearGradient>
    </defs>
    <g id="Page-1" stroke="none" stroke-width="1" fill="none" fill-rule="evenodd">
        <g id="iPhone-12" transform="translate(-9.000000, -13.000000)">
            <g id="Group-5" transform="translate(9.000000, 13.000000)">
                <g id="Group-4">
                    <rect id="Rectangle" fill="#FAFAFA" fill-rule="nonzero" transform="translate(186.000000, 149.000000) rotate(-90.000000) translate(-186.000000, -149.000000) " x="37" y="-37" width="298" height="372" rx="46"></rect>
                    <g id="Group-8" transform="translate(214.000000, 32.000000)">
                        <path d="M21.592862,174.095238 L30.0356902,174.095238 C31.1402597,174.095238 32.0356902,174.990669 32.0356902,176.095238 L32.0356902,234 L32.0356902,234 L19.592862,234 L19.592862,176.095238 C19.592862,174.990669 20.4882925,174.095238 21.592862,174.095238 Z" id="Rectangle" fill="#F9A826" fill-rule="nonzero"></path>
                        <path d="M37.1857239,191.714286 L45.6285522,191.714286 C46.7331217,191.714286 47.6285522,192.609716 47.6285522,193.714286 L47.6285522,234 L47.6285522,234 L35.1857239,234 L35.1857239,193.714286 C35.1857239,192.609716 36.0811544,191.714286 37.1857239,191.714286 Z" id="Rectangle-Copy" fill="#F50057" fill-rule="nonzero"></path>
                        <path d="M52.7785859,177.619048 L61.2214141,177.619048 C62.3259836,177.619048 63.2214141,178.514478 63.2214141,179.619048 L63.2214141,234 L63.2214141,234 L50.7785859,234 L50.7785859,179.619048 C50.7785859,178.514478 51.6740164,177.619048 52.7785859,177.619048 Z" id="Rectangle-Copy-2" fill="#F8DCAF" fill-rule="nonzero"></path>
                        <path d="M6,205.809524 L14.4428283,205.809524 C15.5473978,205.809524 16.4428283,206.704954 16.4428283,207.809524 L16.4428283,234 L16.4428283,234 L4,234 L4,207.809524 C4,206.704954 4.8954305,205.809524 6,205.809524 Z" id="Rectangle-Copy-6" fill="#F8DCAF" fill-rule="nonzero"></path>
                        <path d="M68.3714478,160 L76.8142761,160 C77.9188456,160 78.8142761,160.895431 78.8142761,162 L78.8142761,234 L78.8142761,234 L66.3714478,234 L66.3714478,162 C66.3714478,160.895431 67.2668783,160 68.3714478,160 Z" id="Rectangle-Copy-5" fill="#F9A826" fill-rule="nonzero"></path>
                        <path d="M83.9643098,181.142857 L92.407138,181.142857 C93.5117075,181.142857 94.407138,182.038288 94.407138,183.142857 L94.407138,234 L94.407138,234 L81.9643098,234 L81.9643098,183.142857 C81.9643098,182.038288 82.8597403,181.142857 83.9643098,181.142857 Z" id="Rectangle-Copy-4" fill="#F50057" fill-rule="nonzero"></path>
                        <path d="M99.5571717,223.410529 L108,223.410529 C109.104569,223.410529 110,224.30596 110,225.410529 L110,233.981958 L110,233.981958 L97.5571717,233.981958 L97.5571717,225.410529 C97.5571717,224.30596 98.4526022,223.410529 99.5571717,223.410529 Z" id="Rectangle-Copy-3" fill="#F8DCAF" fill-rule="nonzero"></path>
                        <polygon id="Line-Copy-Copy" fill="#AFAFAF" fill-rule="nonzero" points="114 234.99994 0 235 0 234.00006 114 234"></polygon>
                        <circle id="Oval" fill="#F8DCAF" fill-rule="nonzero" cx="20" cy="108" r="4"></circle>
                        <path d="M96.4875623,108 C96.7705738,108 97,108.223858 97,108.5 C97,108.768253 96.7834966,108.987165 96.5116851,108.999456 L96.4875623,109 L27.5124377,109 C27.2294262,109 27,108.776142 27,108.5 C27,108.231747 27.2165034,108.012835 27.4883149,108.000544 L27.5124377,108 L96.4875623,108 Z" id="Line-4" fill="#AFAFAF" fill-rule="nonzero"></path>
                        <circle id="Oval-Copy-4" fill="#00BFA6" fill-rule="nonzero" cx="20" cy="118" r="4"></circle>
                        <path d="M79.4890193,118 C79.7712261,118 80,118.223858 80,118.5 C80,118.768253 79.7841122,118.987165 79.5130735,118.999456 L79.4890193,119 L27.5109807,119 C27.2287739,119 27,118.776142 27,118.5 C27,118.231747 27.2158878,118.012835 27.4869265,118.000544 L27.5109807,118 L79.4890193,118 Z" id="Line-4-Copy" fill="#AFAFAF" fill-rule="nonzero"></path>
                        <circle id="Oval-Copy-6" fill="#F9A826" fill-rule="nonzero" cx="20" cy="128" r="4"></circle>
                        <path d="M87.4805065,128 C87.7674148,128 88,128.223858 88,128.5 C88,128.768253 87.7805155,128.987165 87.5049614,128.999456 L87.4805065,129 L27.5194935,129 C27.2325852,129 27,128.776142 27,128.5 C27,128.231747 27.2194845,128.012835 27.4950386,128.000544 L27.5194935,128 L87.4805065,128 Z" id="Line-4-Copy-2" fill="#AFAFAF" fill-rule="nonzero"></path>
                        <g id="Group-5-Copy-2" transform="translate(10.000000, 0.000000)">
                            <circle id="Oval-Copy-21" fill="#F8DCAF" cx="44.9962434" cy="44.9962434" r="44.9962434"></circle>
                            <path d="M83.9641332,67.4943651 C96.3895027,45.9729938 89.0157363,18.453723 67.4943651,6.02835354 C52.4956173,32.0069468 44.9962434,44.9962434 44.9962434,44.9962434" id="Oval-Copy-20" fill="#00BFA6"></path>
                            <path d="M22.4981217,83.9641332 C44.019493,96.3895027 71.5387637,89.0157363 83.9641332,67.4943651 C57.98554,52.4956173 44.9962434,44.9962434 44.9962434,44.9962434" id="Oval-Copy-19" fill="#F9A826"></path>
                        </g>
                    </g>
                </g>
                <g id="Group-3" transform="translate(0.000000, 397.000000)">
                    <rect id="Rectangle-Copy" fill="#FAFAFA" fill-rule="nonzero" transform="translate(186.000000, 149.000000) rotate(-90.000000) translate(-186.000000, -149.000000) " x="37" y="-37" width="298" height="372" rx="46"></rect>
                    <g id="Group-9" transform="translate(44.000000, 46.000000)">
                        <path d="M13.7692279,205.5 L24.2990292,167.217635 L31.8486981,188.945463 L41.3851219,155.215595 L50.3255192,170.321611 L67.8089628,104.72426 L81.1202211,141.971967 L85.2924065,132.246176 L92.6433998,144.248216 L98.6036647,137.212538 L105.755983,148.800713 L126.611099,134.213558 L140.067647,159 L156.067647,170" id="Path-49" stroke="#F9A826" stroke-width="2" stroke-linecap="round" stroke-linejoin="round" stroke-dasharray="7,8"></path>
                        <polyline id="Path-49-Copy" stroke="#2F2E41" stroke-width="2" stroke-linecap="round" stroke-linejoin="round" points="1.23942663 205.5 11.7692279 167.217635 19.3188967 188.945463 28.8553205 155.215595 37.7957179 170.321611 55.2791615 104.72426 68.5904197 141.971967 72.7626051 132.246176 80.1135985 144.248216 86.0738634 137.212538 93.2261813 148.800713 114.087108 39.5407745 127.994393 64.7864422 143.491082 25.0555555 159.981147 39.5407745 170.709625 2.5"></polyline>
                        <polygon id="Line-Copy-Copy-2" fill="#AFAFAF" fill-rule="nonzero" points="174.067647 206.99994 0.0676470588 207 0.0676470588 206.00006 174.067647 206"></polygon>
                        <polygon id="Line-Copy-Copy-3" fill="#AFAFAF" fill-rule="nonzero" points="1 206.987581 1.13686838e-13 207 1.13686838e-13 0.0124192548 1 0"></polygon>
                    </g>
                </g>
                <g id="Group-6" transform="translate(37.000000, 63.000000)" fill-rule="nonzero">
                    <g id="Group" transform="translate(-0.000000, 0.000000)">
                        <path d="M40.4623252,257.954733 C37.3347828,258.878087 35.4786427,263.679527 38.6340808,265.742693 C41.789519,267.80586 64.4822258,273.696464 64.9912702,271.528036 C65.5003145,269.359607 43.5898676,257.031379 40.4623252,257.954733 Z" id="Path-73" fill="#F9A826"></path>
                        <path d="M39.3765369,255 L43.1816241,255 C42.8103961,258.693416 42.4701037,260.570902 42.160747,260.632459 C41.696712,260.724794 40.675835,260.81713 40.1189929,260.632459 C39.7477649,260.509345 39.5002796,258.631859 39.3765369,255 Z" id="Path-74" fill="#F5D6D6"></path>
                        <path d="M70.4623252,256.038521 C67.3347828,256.956366 65.4786427,261.729163 68.6340808,263.780022 C71.789519,265.83088 94.4822258,271.686344 94.9912702,269.530851 C95.5003145,267.375359 73.5898676,255.120675 70.4623252,256.038521 Z" id="Path-73-Copy" fill="#F9A826"></path>
                        <path d="M70.0261859,252 L73.8312731,252 C73.4600451,255.671382 73.1197527,257.537669 72.8103961,257.598858 C72.346361,257.690643 71.325484,257.782427 70.768642,257.598858 C70.3974139,257.476479 70.1499286,255.610193 70.0261859,252 Z" id="Path-74-Copy" fill="#F5D6D6"></path>
                        <g id="pantaloni" transform="translate(42.000000, 119.000000)" fill="#FA7373">
                            <path d="M-7.33189887e-14,1.4824253 C19.2861983,0.494141766 31.017612,1.05332653e-14 35.1942409,1.05332653e-14 C41.4591843,1.05332653e-14 52.156818,43.8733394 52.9756244,74.4918713 C53.7944308,105.110403 33.7201366,134.530096 32.6145583,135.36396 C31.5089801,136.197824 28.2843769,136.475779 27.5473247,134.530096 C26.8102725,132.584413 36.142556,116.663399 29.2978236,74.4918713 C24.9610611,47.7723603 15.1951199,23.4358783 -7.33189887e-14,1.4824253 Z" id="Path-58"></path>
                        </g>
                        <path d="M47.4366485,117.336013 C57.1893673,117.336013 68.2875638,114.362075 69.9404135,126.109166 C71.4065776,136.529449 45.3411562,254.658942 44.0656392,256.228874 C42.7901221,257.798807 39.9657629,256.690619 39.0546793,255.397734 C38.5574857,254.692185 35.6183492,213.640964 36.041524,176.488816 C36.3937967,145.561432 39.0760721,117.336013 47.4366485,117.336013 Z" id="Path-58-Copy" fill="#FF7C7C"></path>
                        <path d="M61.1831358,46 C48.3554851,50.5936939 42.7099616,55.7758761 44.2465653,61.5465465 C45.7831691,67.317217 52.1305684,72.4683682 63.2887635,77 L74,64.990991 C70.9263038,63.654129 67.8746695,61.5129879 64.845097,58.5675676 C61.8155246,55.6221473 60.5948709,51.4329582 61.1831358,46 Z" id="collo" fill="#F5D6D6"></path>
                        <path d="M48,58 C56.0878823,68.0398407 61.388718,73.059761 63.902507,73.059761 C66.416296,73.059761 68.3772988,68.0398407 69.7855153,58 L81,128 L50.9415042,121.77158 L48,58 Z" id="maglia" fill="#F9A826"></path>
                        <path d="M48.4074715,57.6646028 C31.0168178,42.4963816 27.6565766,136.169634 37.3486009,129.026927 C47.0406253,121.884219 55.7703209,121.884219 66.7683628,131.996366 C77.7664046,142.108514 65.798125,72.8328241 48.4074715,57.6646028 Z" id="Path-56" fill="#A6A1A1"></path>
                        <path d="M81.072652,138.751445 C74.8241629,133.973813 62.3053177,60.7746778 64.1914819,56.9686689 C66.0776462,53.16266 79.752337,61.2388253 82.2986588,69.593479 C84.8449805,77.9481327 87.3211412,143.529077 81.072652,138.751445 Z" id="Path-57" fill="#A5A1A1"></path>
                        <path d="M41.9703904,61.2013205 C37.3362115,59.5269026 37.6247853,68.7351447 38.5655662,72.6143766 C43.4044643,92.5671722 56.3240259,104.806826 65.3440485,106.853545 C75.6946647,109.202187 110.711031,82.5428075 111.171142,81.3365496 C111.631253,80.1302916 111.631253,79.7591353 111.171142,77.9961429 C110.711031,76.2331505 89.9196774,88.7198211 71.6935855,84.5841671 C53.4674937,80.4485132 46.6045693,62.8757385 41.9703904,61.2013205 Z" id="Path-55" fill="url(#linearGradient-1)"></path>
                        <path d="M109.514741,78.9240336 C109.514741,78.4600883 125.972774,68.6872385 127.735152,68.067712 C129.497529,67.4481855 121.91035,72.1387433 121.293592,73.9134237 C120.676835,75.688104 125.066506,76.0475723 123.962238,78.9240336 C122.857971,81.8004949 110.895075,81.5221277 110.250919,81.1509714 C109.606763,80.7798151 109.514741,79.387979 109.514741,78.9240336 Z" id="Path-64" fill="#F5D6D6"></path>
                        <ellipse id="Oval" fill="#F5D6D6" transform="translate(57.506873, 29.508844) rotate(-1.000000) translate(-57.506873, -29.508844) " cx="57.5068731" cy="29.5088445" rx="11.7830037" ry="18.3445195"></ellipse>
                        <path d="M66.8273752,10.7976815 C69.6774407,12.4248524 72.7572447,16.1814504 69.7929334,18.7512054 C66.8286221,21.3209606 59.1081848,18.1374231 57.6526796,18.7512054 C56.1971744,19.3649877 61.1204,21.1077596 57.6526796,23.8707151 C54.1849593,26.6336705 49.512084,24.5238415 48.0146155,26.4304699 C46.5171471,28.3370984 50.5718283,31.0640177 49.682742,34.0183146 C48.7936558,36.9726115 46.5318364,41.7889988 44.4930151,38.1322062 C43.3001651,35.9927321 38.8259368,29.0356898 37.9131829,22.2251584 C37.2658566,17.3951191 39.3282318,12.575066 41.527457,9.88348334 C46.8276698,3.39667127 63.9773098,9.17051072 66.8273752,10.7976815 Z" id="Path-61" fill="#593F34"></path>
                        <path d="M41.527457,11.8947193 C39.4205629,5.60486147 27.7923808,-2.3404884 22.3440025,0.650082039 C16.8956242,3.64065249 23.0664248,16.2080362 17.7103178,24.9677529 C12.354211,33.7274695 3.6936527,26.8053128 1.21440048,35.2067722 C-1.26485175,43.6082316 -0.343384259,55.830152 7.701559,58.8845043 C11.5612744,60.3498883 10.2750831,47.4320358 14.0033701,44.9886924 C18.0460854,42.3392876 27.0365846,49.9360425 29.3872032,45.9028905 C33.9056175,38.1502711 26.6361003,29.383231 29.3872032,21.6766395 C32.1383061,13.9700481 43.6343511,18.1845772 41.527457,11.8947193 Z" id="Path-62" fill="#593F34"></path>
                        <path d="M40.60072,6.86662947 C42.207127,6.5144801 44.2617427,7.07455791 44.4930151,8.32934651 C44.7242877,9.5841351 41.9854228,10.00159 41.527457,11.8947193 C41.0694912,13.7878486 43.0158703,15.3438268 42.5468676,16.3742902 C42.0778649,17.4047537 40.5207593,15.8951567 39.4886357,16.3742902 C38.4565122,16.8534239 38.983825,18.835244 37.8205092,18.5683658 C36.6571935,18.3014877 35.4809468,16.8945029 35.5036669,15.4600921 C35.5263871,14.0256813 37.7540956,14.1971698 37.9131829,12.7174976 C38.0722704,11.2378255 35.7428525,10.2818911 36.1523828,9.42638427 C36.5619131,8.57087748 38.5906368,9.94312956 39.4886357,9.42638427 C40.3866347,8.90963905 38.9943131,7.21877885 40.60072,6.86662947 Z" id="Path-63" fill="#F9A826"></path>
                    </g>
                    <g id="cagnolino" transform="translate(112.009676, 208.000000)">
                        <path d="M47.7089807,55.5325452 C51.0948348,49.1370127 58.5747074,50.6729129 59.3602475,44.3226805 C60.1457878,37.9724483 49.6712994,31.108132 50.8568669,30.0853341 C52.0424344,29.0625363 63.6119379,37.408567 64.9201503,45.7545976 C66.2283628,54.1006282 48.8401296,61.8579035 46.5642949,62.7739542 C44.28846,63.6900048 44.3231266,61.9280778 47.7089807,55.5325452 Z" id="Path-83" fill="#CB9C71"></path>
                        <path d="M39.5336728,61.4700684 C37.4950792,64.6518758 36.776766,67.5711806 36.2824443,69.2997805 C35.7881225,71.0283803 38.1083041,74.1887227 41.0945772,70.770311 C44.0808503,67.3518996 41.5722663,58.2882609 39.5336728,61.4700684 Z" id="Path-84-Copy" stroke="#A67D56" fill="#A67D56" transform="translate(39.342995, 66.548724) rotate(49.000000) translate(-39.342995, -66.548724) "></path>
                        <path d="M6.00180009,54.367257 C4.04916345,57.5615542 2.53164724,58.0863369 2.05844457,59.8219075 C1.58524192,61.557478 3.59635322,65.0286193 7.50027519,63.7062798 C11.4041972,62.3839402 13.78825,44.2679307 12.744938,42.5075246 C11.7016261,40.7471186 10.7867904,39.8395323 8.56498118,43.747218 C6.34317192,47.6549036 7.95443673,51.1729598 6.00180009,54.367257 Z" id="Path-84" fill="#AB8969"></path>
                        <path d="M9.08862894,27.7307286 C10.0702453,26.7231517 9.00784792,21.2499069 9.9280098,21.0196373 C11.147492,20.714463 24.5657264,24.0393336 26.3627723,25.9081949 C30.2660643,29.9674743 31.2254661,33.772985 35.124417,38.6659303 C37.4758255,41.6168044 45.302998,43.4243295 49.4503291,48.7312864 C52.1142473,52.1400565 52.356528,59.1548646 51.6511214,61.6961278 C51.005245,64.0229309 46.5302267,68.0840532 41.9759402,70.2288989 C39.9438684,71.185905 37.4082581,71.1815868 36.204051,70.6016897 C34.9998439,70.0217928 33.2641099,68.1214306 35.124417,66.3767254 C36.1619541,65.4036623 40.3976782,64.0631748 39.899721,63.4772402 C38.8192233,62.2058435 31.2894685,59.1130592 17.3104568,54.1988872 C2.48625205,46.4116981 7.5181105,29.3427822 9.08862894,27.7307286 Z" id="Path-82" fill="#AB8969"></path>
                        <path d="M9.24243281,28.8316932 C7.80935562,28.4114636 7.58600743,26.2801261 8.67800326,25.3858112 C8.95927884,25.1554541 11.7885719,25.3322444 14.7254628,24.9235588 C17.6819667,24.5121439 20.7210839,22.6022895 21.7405161,23.0745489 C22.1033636,23.2426407 22.9903243,24.1251227 22.9903243,24.713444 C22.9903243,25.116004 19.6562288,27.3004375 16.1768531,28.3274177 C13.1184581,29.2301405 9.91283199,29.0282781 9.24243281,28.8316932 Z" id="Path-86" fill="#7A4A3C"></path>
                        <path d="M22.1161498,11.0365961 C17.9171727,7.25148563 32.0363094,4.90741947 32.9834009,9.92651301 C33.9304925,14.9456066 25.2041515,22.0210698 24.4631171,20.7456947 C23.7220828,19.4703198 26.3151269,14.8217065 22.1161498,11.0365961 Z" id="Path-79" fill="#A67D56" transform="translate(27.196605, 13.977405) rotate(6.000000) translate(-27.196605, -13.977405) "></path>
                        <path d="M23.6543135,7.74937466 C26.8825379,6.66226093 32.3973271,6.97573078 32.9770391,10.0479037 C33.9241307,15.0669972 25.1977897,22.1424605 24.4567553,20.8670855 C23.9714857,20.0319004 24.9955226,14.1463316 26.4752866,12.3437967 C27.9550507,10.5412618 30.0542141,7.29136446 23.6543135,7.74937466 Z" id="Path-79-Copy" fill="#CB9C71" transform="translate(28.351561, 14.098796) rotate(6.000000) translate(-28.351561, -14.098796) "></path>
                        <path d="M3.13961983,5.83922134 C-1.05932791,2.05234094 13.0562568,-0.288993359 14.0042961,4.73138925 C14.4818036,7.26005 14.3404923,9.66989757 12.1667723,11.9114328 C10.0248063,14.1202235 5.85616805,16.1841466 5.48831056,15.5509315 C4.74714221,14.2751144 7.33856755,9.62610174 3.13961983,5.83922134 Z" id="Path-79-Copy-3" fill="#CB9C71" transform="translate(8.295242, 8.763978) scale(-1, 1) rotate(-25.000000) translate(-8.295242, -8.763978) "></path>
                        <path d="M8.88630082,4.8289651 C16.7630647,1.96628884 22.7688371,3.86295007 25.3614682,9.69658537 C26.3154477,11.8431185 26.176669,14.0643927 25.0233703,16.5944028 C23.042348,20.9402034 22.9718198,23.0638807 16.9655616,26.0110366 C9.374957,29.735601 2.49334714,22.8639153 2.34452671,19.3601437 C2.19570629,15.856372 3.03553847,17.0220302 4.31763451,13.5009361 C5.59828759,9.98380487 4.95013636,6.2594973 8.88630082,4.8289651 Z" id="Path-77" fill="#AB8969" transform="translate(14.160118, 15.300205) rotate(6.000000) translate(-14.160118, -15.300205) "></path>
                        <path d="M17.0087411,46.6446776 C15.0729017,50.9278298 21.0078099,57.1891411 20.6177002,62.7002543 C20.2275906,68.2113674 9.79082302,69.4801998 13.9805342,72.6829962 C18.1702453,75.8857926 22.4777174,72.4332318 24.2681416,70.8944216 C26.0585658,69.3556114 32.6699207,52.0484691 28.789711,46.6446776 C24.9095015,41.2408862 18.9445807,42.3615255 17.0087411,46.6446776 Z" id="Path-85" fill="#AB8969"></path>
                        <path d="M23.6543135,7.74937466 C26.8825379,6.66226093 32.3973271,6.97573078 32.9770391,10.0479037 C33.9241307,15.0669972 25.1977897,22.1424605 24.4567553,20.8670855 C23.9714857,20.0319004 24.9955226,14.1463316 26.4752866,12.3437967 C27.9550507,10.5412618 30.0542141,7.29136446 23.6543135,7.74937466 Z" id="Path-79-Copy-2" fill="#CB9C71" transform="translate(28.351561, 14.098796) rotate(6.000000) translate(-28.351561, -14.098796) "></path>
                    </g>
                </g>
                <g id="Group-2" transform="translate(209.067647, 476.000000)" fill-rule="nonzero">
                    <path d="M111.986508,246.302855 C116.918421,250.060358 119.052962,252.917227 118.39013,254.873464 C117.395882,257.807818 99.4433016,267.910435 96.5243466,264.508646 C94.5783764,262.240786 99.7324301,256.17219 111.986508,246.302855 Z" id="Path-75-Copy" fill="#F9A826" transform="translate(107.316128, 255.751483) rotate(-10.000000) translate(-107.316128, -255.751483) "></path>
                    <path d="M85.724024,239.841638 C90.601628,243.55166 92.6983762,246.390814 92.0142674,248.3591 C90.9881046,251.31153 72.9571162,261.641753 70.0839794,258.265353 C68.1685548,256.01442 73.381903,249.873182 85.724024,239.841638 Z" id="Path-75-Copy-2" fill="#F9A826" transform="translate(80.919239, 249.388574) rotate(21.000000) translate(-80.919239, -249.388574) "></path>
                    <path d="M72.1769672,133.520872 C77.6326723,111.712904 93.4730419,137.032402 94.8844928,150.871688 C96.2959447,164.710974 84.3043642,181.252368 84.3798364,204.831142 C84.4210873,217.718613 86.4789694,227.193121 88.0101222,241.651642 C88.3465563,244.828555 86.001879,246.454316 84.3798364,245.889296 C82.7577939,245.324275 72.3908457,223.157763 68.931812,204.831142 C65.4727784,186.504521 66.7212621,155.328841 72.1769672,133.520872 Z" id="Path-66" fill="#262535"></path>
                    <path d="M86.0889228,127.408278 C96.5048543,125.614838 108.408776,129.944432 108.408776,136.196133 C108.408776,141.307754 110.592923,155.121863 108.408776,179.597379 C106.087959,205.604411 115.988358,249.921324 114.918883,250.899643 C112.698384,252.930881 109.705538,251.673448 108.450473,250.899643 C107.228839,250.146449 98.5180176,213.045034 93.7039316,201.477346 C87.7412979,187.149833 75.6729913,129.201717 86.0889228,127.408278 Z" id="Path-70" fill="#2F2E41"></path>
                    <ellipse id="viso" fill="#F5D6D6" transform="translate(99.264880, 29.489390) rotate(22.000000) translate(-99.264880, -29.489390) " cx="99.2648802" cy="29.4893898" rx="14.4954521" ry="22.1476475"></ellipse>
                    <path d="M94.1941663,0.412033106 C98.2707957,-1.04286659 105.237932,1.34331614 107.611201,7.75956323 C108.612472,10.466548 121.428743,8.91969957 121.929379,14.4303471 C122.430015,19.9409948 120.150449,19.8578175 118.825438,24.484862 C117.500428,29.1119066 119.788941,29.9459885 116.32226,34.3460209 C112.855579,38.7460533 114.720226,37.7297519 108.612472,42.7570094 C106.676302,44.3506596 107.441917,37.6500038 106.409675,35.8928694 C105.367996,34.1196714 101.538126,35.6258493 102.004082,32.7024945 C102.532958,29.3843795 106.362473,25.8578393 106.409675,24.484862 C106.539673,20.7035782 102.472931,25.2222286 97.6986152,21.5845212 C92.9243006,17.9468139 85.1003768,3.65749648 94.1941663,0.412033106 Z" id="capelli" fill="#8E541E"></path>
                    <path d="M0,36.4293035 C0,35.9433766 17.8066568,25.7074957 19.7134491,25.0586164 C21.6202414,24.4097372 13.4113442,29.3225304 12.7440479,31.181294 C12.0767515,33.0400577 16.8261257,33.4165573 15.6313712,36.4293035 C14.4366168,39.4420496 1.49344311,39.1504935 0.796502993,38.7617521 C0.0995628739,38.3730106 0,36.9152302 0,36.4293035 Z" id="mano-s" fill="#F5D6D6" transform="translate(10.000000, 32.000000) scale(-1, 1) translate(-10.000000, -32.000000) "></path>
                    <path d="M81.3998977,58.0101929 C90.5050762,74.1022296 12.5101802,64.9993933 11.6404772,64.4443045 C10.7561533,63.8798841 12.3019822,62.2040252 12.743448,61.4139173 C12.8617698,61.2021522 44.1933578,58.8649042 61.0250298,50.1436437 C63.1765564,49.0288391 73.7090768,45.9503505 75.2912833,44.6180282 C77.9361779,42.3908524 76.1384951,48.7114529 81.3998977,58.0101929 Z" id="Path-71" fill="#F5D6D6" transform="translate(46.755553, 55.838856) scale(-1, 1) rotate(160.000000) translate(-46.755553, -55.838856) "></path>
                    <path d="M108.829805,145.490129 C107.365552,144.385038 105.809308,147.447387 104.947503,151.071127 C104.085699,154.694869 103.336957,160.599049 104.947503,161.814549 C106.558049,163.030049 109.40856,157.985735 110.123906,154.977826 C110.839252,151.969917 110.294058,146.59522 108.829805,145.490129 Z" id="mano-d" fill="#F5D6D6"></path>
                    <path d="M115.592673,73.4422245 C121.930307,64.9765866 136.881222,95.9798097 134.803626,109.228784 C132.150464,126.148176 112.155578,145.090703 111.4336,146.16975 C110.146269,148.093758 108.363809,148.093758 107.274528,146.16975 C106.628882,145.029338 118.312258,123.013176 116.97903,105.861769 C116.062946,94.0767356 109.255039,81.9078623 115.592673,73.4422245 Z" id="Path-72" fill="#F5D6D6"></path>
                    <path d="M68.9483075,109.224942 C94.4341846,74.2457346 66.5808921,61.2217108 93.4470552,56.7280173 C101.372663,55.4023628 112.52097,55.2016247 116.719914,62.2019523 C128.396426,81.6686122 122.522621,114.279378 122.522621,118.343053 C122.522621,123.86805 114.76187,142.134883 106.612943,137.146332 C104.446017,135.819799 102.496207,134.795999 100.943802,134.383368 C98.7999189,133.813519 112.730552,127.61079 95.413096,127.61079 C87.3446989,127.61079 81.6189636,130.433764 76.0102922,129.393048 C65.9012771,127.51727 61.0084049,120.122409 68.9483075,109.224942 Z" id="Path-76" fill="#00BFA6" transform="translate(94.500000, 97.000000) rotate(180.000000) translate(-94.500000, -97.000000) "></path>
                    <path d="M102.682999,38 C97.9708412,44.4409514 94.3750227,49.7255184 91.8955426,53.8537007 C90.6296995,55.9612531 85.0459452,59.4682172 84.1848075,62.4457216 C82,70 101.525061,65.9329968 111.965528,64.9235224 C114,65 107.449682,63.6200527 104.788461,56.4066056 C103.509073,52.9387273 102.807253,46.8031921 102.682999,38 Z" id="collo" fill="#F5D6D6"></path>
                    <path d="M114.66842,66.713326 C110.860887,70.2941094 108.800794,92.640453 114.66842,96.2335779 C120.536048,99.8267037 131.236689,90.0654873 129.882767,81.9252926 C128.528844,73.7850979 118.475955,63.1325426 114.66842,66.713326 Z" id="Path-78" fill="#00BFA6"></path>
                </g>
            </g>
        </g>
    </g>
</svg>